<svg width="129" height="91" viewBox="0 0 129 91" fill="none" xmlns="http://www.w3.org/2000/svg">
<path d="M1.75 1C1.75 0.585786 1.41421 0.25 1 0.25C0.585786 0.25 0.25 0.585787 0.25 1L1 1L1.75 1ZM122.47 90.5303C122.763 90.8232 123.237 90.8232 123.53 90.5303L128.303 85.7574C128.596 85.4645 128.596 84.9896 128.303 84.6967C128.01 84.4038 127.536 84.4038 127.243 84.6967L123 88.9393L118.757 84.6967C118.465 84.4038 117.99 84.4038 117.697 84.6966C117.404 84.9895 117.404 85.4644 117.697 85.7573L122.47 90.5303ZM1 1L0.25 1C0.250005 9.89534 2.18196 17.0848 5.59383 22.9536C9.00467 28.8206 13.8692 33.3242 19.67 36.8877C31.2401 43.9955 46.6243 47.4107 61.8534 50.4513C77.1525 53.5058 92.2799 56.1813 103.607 61.7481C109.253 64.523 113.905 67.9947 117.147 72.5472C120.383 77.0906 122.25 82.7604 122.25 90L123 90L123.75 90C123.75 82.4843 121.805 76.5022 118.369 71.6771C114.939 66.8612 110.06 63.2481 104.269 60.4019C92.7206 54.7265 77.348 52.0152 62.1471 48.9803C46.876 45.9314 31.7601 42.5545 20.4552 35.6096C14.8184 32.1469 10.1517 27.809 6.89061 22.1997C3.63057 16.5921 1.75 9.67045 1.75 1L1 1Z" fill="#E8EAED"/>
</svg>
